<svg id="visual" viewBox="0 0 675 900" width="675" height="900" xmlns="http://www.w3.org/2000/svg" xmlns:xlink="http://www.w3.org/1999/xlink" version="1.1"><rect x="0" y="0" width="675" height="900" fill="#321049"></rect><defs><linearGradient id="grad1_0" x1="0%" y1="0%" x2="100%" y2="100%"><stop offset="30%" stop-color="#000000" stop-opacity="1"></stop><stop offset="70%" stop-color="#000000" stop-opacity="1"></stop></linearGradient></defs><defs><linearGradient id="grad1_1" x1="0%" y1="0%" x2="100%" y2="100%"><stop offset="30%" stop-color="#000000" stop-opacity="1"></stop><stop offset="70%" stop-color="#321049" stop-opacity="1"></stop></linearGradient></defs><defs><linearGradient id="grad2_0" x1="0%" y1="0%" x2="100%" y2="100%"><stop offset="30%" stop-color="#000000" stop-opacity="1"></stop><stop offset="70%" stop-color="#000000" stop-opacity="1"></stop></linearGradient></defs><defs><linearGradient id="grad2_1" x1="0%" y1="0%" x2="100%" y2="100%"><stop offset="30%" stop-color="#321049" stop-opacity="1"></stop><stop offset="70%" stop-color="#000000" stop-opacity="1"></stop></linearGradient></defs><g transform="translate(675, 0)"><path d="M0 506.3C-52 493.2 -104 480.1 -149.6 460.3C-195.1 440.5 -234.2 414 -282.7 389.1C-331.2 364.3 -389 341 -409.6 297.6C-430.1 254.1 -413.3 190.5 -423.2 137.5C-433.1 84.6 -469.7 42.3 -506.2 0L0 0Z" fill="#23023a"></path><path d="M0 253.1C-26 246.6 -52 240.1 -74.8 230.2C-97.6 220.3 -117.1 207 -141.4 194.6C-165.6 182.1 -194.5 170.5 -204.8 148.8C-215 127.1 -206.7 95.2 -211.6 68.8C-216.6 42.3 -234.8 21.1 -253.1 0L0 0Z" fill="#000000"></path></g><g transform="translate(0, 900)"><path d="M0 -506.2C36.5 -453.4 73.1 -400.6 127.9 -393.7C182.8 -386.9 256 -426.1 297.6 -409.6C339.2 -393 349.2 -320.6 370.5 -269.2C391.8 -217.8 424.4 -187.2 448.9 -145.9C473.4 -104.5 489.8 -52.2 506.3 0L0 0Z" fill="#23023a"></path><path d="M0 -253.1C18.3 -226.7 36.5 -200.3 64 -196.9C91.4 -193.5 128 -213.1 148.8 -204.8C169.6 -196.5 174.6 -160.3 185.3 -134.6C195.9 -108.9 212.2 -93.6 224.4 -72.9C236.7 -52.2 244.9 -26.1 253.1 0L0 0Z" fill="#000000"></path></g></svg>